# Blender v2.81 (sub 16) OBJ File: 'Hexagon.blend'
# www.blender.org
mtllib Hexagon.mtl
o Cube
v 1.666667 0.033333 0.000000
v 1.666667 -0.033333 0.000000
v -1.666667 0.033333 0.000000
v -1.666667 -0.033333 0.000000
v 0.833333 -0.033333 -1.666667
v -0.833333 -0.033333 -1.666667
v 0.833333 0.033333 1.666667
v -0.833333 0.033333 1.666667
v -0.833333 -0.033333 1.666667
v 0.833333 -0.033333 1.666667
v -0.833333 0.033333 -1.666667
v 0.833333 0.033333 -1.666667
v -1.250000 0.033333 -0.833333
v 1.250000 0.033333 0.833333
v 0.000000 0.033333 -1.666667
v -1.250000 -0.033333 0.833333
v 1.250000 0.033333 -0.833333
v 0.000000 0.033333 1.666667
v 1.250000 -0.033333 -0.833333
v 0.000000 -0.033333 -1.666667
v 1.250000 -0.033333 0.833333
v 0.000000 -0.033333 1.666667
v -0.833333 -0.033333 0.000000
v 0.000000 -0.033333 0.000000
v -1.250000 0.033333 0.833333
v 0.833333 -0.033333 0.000000
v 0.833333 0.033333 0.000000
v -1.250000 -0.033333 -0.833333
v -0.833333 0.033333 0.000000
v 0.000000 0.033333 0.000000
vt 0.250000 1.000000
vt 0.125000 0.750000
vt 0.250000 0.500000
vt 0.750000 1.000000
vt 0.875000 0.750000
vt 0.750000 0.500000
vt 0.000000 0.500000
vt 0.125000 0.750000
vt 0.125000 0.250000
vt 0.250000 1.000000
vt 0.500000 0.500000
vt 0.250000 0.500000
vt 0.500000 1.000000
vt 1.000000 0.500000
vt 0.875000 0.750000
vt 0.875000 0.250000
vt 0.750000 1.000000
vt 0.500000 1.000000
vt 0.750000 0.500000
vt 0.500000 0.500000
vt 0.500000 0.000000
vt 0.250000 0.000000
vt 0.250000 0.000000
vt 0.750000 0.000000
vt 0.750000 0.000000
vt 0.500000 0.000000
vt 0.875000 0.250000
vt 1.000000 0.500000
vt 0.000000 0.500000
vt 0.125000 0.250000
vn 0.0000 1.0000 0.0000
vn 0.0000 -1.0000 0.0000
vn 0.0000 0.0000 1.0000
vn 0.8944 0.0000 0.4472
vn 0.0000 0.0000 -1.0000
vn -0.8944 0.0000 -0.4472
vn 0.8944 0.0000 -0.4472
vn -0.8944 0.0000 0.4472
usemtl Material
s off
f 11/1/1 13/2/1 29/3/1
f 5/4/2 19/5/2 26/6/2
f 4/7/2 28/8/2 16/9/2
f 6/10/2 24/11/2 23/12/2
f 6/10/2 20/13/2 24/11/2
f 1/14/1 17/15/1 14/16/1
f 12/17/1 15/18/1 27/19/1
f 11/1/1 29/3/1 30/20/1
f 18/21/3 8/22/3 9/23/3
f 14/16/4 7/24/4 10/25/4
f 15/18/5 12/17/5 5/4/5
f 30/20/1 18/21/1 7/24/1
f 30/20/1 29/3/1 18/21/1
f 29/3/1 8/22/1 18/21/1
f 27/19/1 30/20/1 7/24/1
f 27/19/1 15/18/1 30/20/1
f 15/18/1 11/1/1 30/20/1
f 14/16/1 27/19/1 7/24/1
f 14/16/1 17/15/1 27/19/1
f 17/15/1 12/17/1 27/19/1
f 7/24/3 22/26/3 10/25/3
f 7/24/3 18/21/3 22/26/3
f 18/21/3 9/23/3 22/26/3
f 13/2/6 11/1/6 6/10/6
f 1/14/4 21/27/4 2/28/4
f 1/14/4 14/16/4 21/27/4
f 14/16/4 10/25/4 21/27/4
f 24/11/2 26/6/2 10/25/2
f 24/11/2 20/13/2 26/6/2
f 20/13/2 5/4/2 26/6/2
f 23/12/2 22/26/2 9/23/2
f 23/12/2 24/11/2 22/26/2
f 24/11/2 10/25/2 22/26/2
f 16/9/2 23/12/2 9/23/2
f 16/9/2 28/8/2 23/12/2
f 28/8/2 6/10/2 23/12/2
f 11/1/5 20/13/5 6/10/5
f 11/1/5 15/18/5 20/13/5
f 15/18/5 5/4/5 20/13/5
f 3/29/6 28/8/6 4/7/6
f 3/29/6 13/2/6 28/8/6
f 13/2/6 6/10/6 28/8/6
f 12/17/7 19/5/7 5/4/7
f 12/17/7 17/15/7 19/5/7
f 17/15/7 2/28/7 19/5/7
f 17/15/7 1/14/7 2/28/7
f 26/6/2 21/27/2 10/25/2
f 26/6/2 19/5/2 21/27/2
f 19/5/2 2/28/2 21/27/2
f 25/30/8 3/29/8 4/7/8
f 8/22/8 16/9/8 9/23/8
f 8/22/8 25/30/8 16/9/8
f 25/30/8 4/7/8 16/9/8
f 29/3/1 25/30/1 8/22/1
f 29/3/1 13/2/1 25/30/1
f 13/2/1 3/29/1 25/30/1
